# xmcd
#
# Track frame offsets: 
#        150
#        19240
#        36820
#        61462
#        74085
#        88662
#        102592
#        110805
#        127710
#        144810
#        165400
#        184865
#        204220
#
# Disc length: 2903 seconds
#
# Revision: 2
# Processed by: cddbd v1.5.2PL0 Copyright (c) Steve Scherf et al.
# Submitted via: ExactAudioCopy v0.99pb4
#
DISCID=b30b550d
DTITLE=The White Stripes - Icky Thump
DYEAR=2007
DGENRE=Rock
TTITLE0=Icky Thump
TTITLE1=You Don't Know What Love Is (You Just Do As You're Told)
TTITLE2=300 M.P.H. Torrential Outpour Blues
TTITLE3=Conquest
TTITLE4=Bone Broke
TTITLE5=Prickly Thorn, But Sweetly Worn
TTITLE6=St. Andrew (This Battle Is In The Air)
TTITLE7=Little Cream Soda
TTITLE8=Rag And Bone
TTITLE9=I'm Slowly Turning Into You
TTITLE10=A Martyr For My Love For You
TTITLE11=Catch Hell Blues
TTITLE12=Effect And Cause
EXTD=YEAR: 2007
EXTT0=
EXTT1=
EXTT2=
EXTT3=
EXTT4=
EXTT5=
EXTT6=
EXTT7=
EXTT8=
EXTT9=
EXTT10=
EXTT11=
EXTT12=
PLAYORDER=
